<svg width="1800" height="236" viewBox="0 0 1800 236" fill="none" xmlns="http://www.w3.org/2000/svg">
<path d="M0.439941 68.4H39.3199V167.4H0.439941V230.4H153.8V167.4H114.92V68.4H153.8V5.40002H0.439941V68.4Z" fill="url(#paint0_linear_249_80)"/>
<path d="M306.575 189.72L360.215 113.76V230.4H432.575V5.40002H360.575L306.575 90.36L252.575 5.40002H180.575V230.4H252.935V113.76L306.575 189.72Z" fill="url(#paint1_linear_249_80)"/>
<path d="M540.229 74.16C555.709 69.48 567.589 68.04 583.789 68.04C603.949 68.04 632.029 72.36 653.629 79.92V12.6C630.589 5.04 605.749 0 572.629 0C537.349 0 500.629 8.64 462.829 28.08V207.72C500.629 227.16 537.349 235.8 572.629 235.8C605.749 235.8 630.589 231.12 653.629 223.56V156.24C632.029 163.8 603.949 167.76 583.789 167.76C567.589 167.76 555.709 166.32 540.229 161.64V74.16Z" fill="url(#paint2_linear_249_80)"/>
<path d="M898.64 207.72V28.08C863 9.00002 825.56 0 788.84 0C752.12 0 714.68 9.00002 679.04 28.08V207.72C714.68 226.8 752.12 235.8 788.84 235.8C825.56 235.8 863 226.8 898.64 207.72ZM788.84 167.76C776.6 167.76 765.44 165.96 754.64 161.64V74.16C765.44 69.84 776.6 68.04 788.84 68.04C801.08 68.04 812.24 69.84 823.04 74.16V161.64C812.24 165.96 801.08 167.76 788.84 167.76Z" fill="url(#paint3_linear_249_80)"/>
<path d="M1146.85 207.72V28.08C1107.61 7.56002 1059.37 0 1019.05 0C983.411 0 956.411 2.52001 929.052 5.40002V230.4C956.411 233.28 983.411 235.8 1019.05 235.8C1059.37 235.8 1107.61 228.24 1146.85 207.72ZM1037.05 167.76H1004.65V68.04H1037.05C1049.29 68.04 1060.45 69.84 1071.25 74.16V161.64C1060.45 165.96 1049.29 167.76 1037.05 167.76Z" fill="url(#paint4_linear_249_80)"/>
<path d="M1171.49 68.4H1210.37V167.4H1171.49V230.4H1324.85V167.4H1285.97V68.4H1324.85V5.40002H1171.49V68.4Z" fill="url(#paint5_linear_249_80)"/>
<path d="M1492.39 230.4H1566.19V5.40002H1497.79V122.4L1425.43 5.40002H1351.63V230.4H1420.03V113.4L1492.39 230.4Z" fill="url(#paint6_linear_249_80)"/>
<path d="M1732.71 115.56V165.96C1723.35 167.4 1714.71 167.76 1706.43 167.76C1695.27 167.76 1684.11 166.68 1671.87 163.08V73.44C1690.23 69.12 1707.15 68.04 1724.43 68.04C1745.67 68.04 1774.83 73.08 1797.87 81V13.68C1771.59 4.68 1742.07 0 1709.67 0C1672.23 0 1632.63 9.36001 1596.27 27.72V208.08C1628.67 226.8 1667.55 235.8 1706.07 235.8C1745.67 235.8 1774.83 226.08 1799.31 214.92V115.56H1732.71Z" fill="url(#paint7_linear_249_80)"/>
<defs>
<linearGradient id="paint0_linear_249_80" x1="-28.5" y1="-49.5003" x2="1799" y2="236" gradientUnits="userSpaceOnUse">
<stop stop-color="#D6C0FF"/>
<stop offset="0.517169" stop-color="#8747FF"/>
<stop offset="1" stop-color="#4B47FF"/>
</linearGradient>
<linearGradient id="paint1_linear_249_80" x1="-28.5" y1="-49.5003" x2="1799" y2="236" gradientUnits="userSpaceOnUse">
<stop stop-color="#D6C0FF"/>
<stop offset="0.517169" stop-color="#8747FF"/>
<stop offset="1" stop-color="#4B47FF"/>
</linearGradient>
<linearGradient id="paint2_linear_249_80" x1="-28.5" y1="-49.5003" x2="1799" y2="236" gradientUnits="userSpaceOnUse">
<stop stop-color="#D6C0FF"/>
<stop offset="0.517169" stop-color="#8747FF"/>
<stop offset="1" stop-color="#4B47FF"/>
</linearGradient>
<linearGradient id="paint3_linear_249_80" x1="-28.5" y1="-49.5003" x2="1799" y2="236" gradientUnits="userSpaceOnUse">
<stop stop-color="#D6C0FF"/>
<stop offset="0.517169" stop-color="#8747FF"/>
<stop offset="1" stop-color="#4B47FF"/>
</linearGradient>
<linearGradient id="paint4_linear_249_80" x1="-28.5" y1="-49.5003" x2="1799" y2="236" gradientUnits="userSpaceOnUse">
<stop stop-color="#D6C0FF"/>
<stop offset="0.517169" stop-color="#8747FF"/>
<stop offset="1" stop-color="#4B47FF"/>
</linearGradient>
<linearGradient id="paint5_linear_249_80" x1="-28.5" y1="-49.5003" x2="1799" y2="236" gradientUnits="userSpaceOnUse">
<stop stop-color="#D6C0FF"/>
<stop offset="0.517169" stop-color="#8747FF"/>
<stop offset="1" stop-color="#4B47FF"/>
</linearGradient>
<linearGradient id="paint6_linear_249_80" x1="-28.5" y1="-49.5003" x2="1799" y2="236" gradientUnits="userSpaceOnUse">
<stop stop-color="#D6C0FF"/>
<stop offset="0.517169" stop-color="#8747FF"/>
<stop offset="1" stop-color="#4B47FF"/>
</linearGradient>
<linearGradient id="paint7_linear_249_80" x1="-28.5" y1="-49.5003" x2="1799" y2="236" gradientUnits="userSpaceOnUse">
<stop stop-color="#D6C0FF"/>
<stop offset="0.517169" stop-color="#8747FF"/>
<stop offset="1" stop-color="#4B47FF"/>
</linearGradient>
</defs>
</svg>
